PathFileType	3	(X/Y/Z)	C:\Users\koon_\Desktop\
DataRate	CameraRate	NumFrames	NumMarkers	Units	OrigDataRate	OrigDataStartFrame	OrigNumFrames
100.0	100.0	5	27	mm	100.0	1295	5176	
Frame#	Time	get:LFHD			get:RFHD			get:LBHD			get:RBHD			get:C7			get:T10			get:CLAV			get:STRN			get:RBAK			get:LSHO			get:LUPA			get:LELB			get:LFRA			get:LWRA			get:LWRB			get:LFIN			get:RSHO			get:RUPA			get:RELB			get:RFRA			get:RWRA			get:RWRB			get:RFIN			get:LASI			get:RASI			get:LPSI			get:RPSI			
		X1	Y1	Z1	X2	Y2	Z2	X3	Y3	Z3	X4	Y4	Z4	X5	Y5	Z5	X6	Y6	Z6	X7	Y7	Z7	X8	Y8	Z8	X9	Y9	Z9	X10	Y10	Z10	X11	Y11	Z11	X12	Y12	Z12	X13	Y13	Z13	X14	Y14	Z14	X15	Y15	Z15	X16	Y16	Z16	X17	Y17	Z17	X18	Y18	Z18	X19	Y19	Z19	X20	Y20	Z20	X21	Y21	Z21	X22	Y22	Z22	X23	Y23	Z23	X24	Y24	Z24	X25	Y25	Z25	X26	Y26	Z26	X27	Y27	Z27	
1295	12.94	94.86335	1574.4259	-49.213482	-61.968712	1564.054	-44.677658	86.245422	1566.2393	-173.91855	-40.379234	1568.5188	-189.41727	27.957338	1380.6398	-205.06093	24.988056	1120.0898	-237.83031	20.158686	1302.6078	-27.035517	31.128315	1116.1172	23.957399	-56.728878	1312.6487	-236.76556	186.90576	1362.2747	-115.52323	240.60561	1216.1169	-101.89484	257.60861	1034.0049	-132.8381	237.7525	936.34723	-56.438721	220.66943	841.99225	-38.086697	270.88745	835.59436	-85.81562	274.81366	759.62885	-36.508495	-132.24635	1363.8655	-126.83912	-207.63139	1144.0713	-113.33672	-209.0943	1040.4075	-170.06921	-215.48665	970.53705	-90.891739	-210.3658	818.5741	-67.732925	-237.32544	820.8606	-137.75615	-262.99615	757.37909	-77.990555	155.26144	931.55792	-40.661964	-121.12302	922.11511	-42.803165	72.775093	963.1142	-239.26283	-35.855255	955.80579	-242.14522
1296	12.95	94.920288	1574.3943	-49.272663	-61.899517	1564.0743	-44.796703	86.396492	1566.2052	-173.92653	-40.2029	1568.5632	-189.61876	27.99062	1380.5781	-205.02264	24.938789	1120.0339	-237.84836	20.291332	1302.5592	-26.978964	31.179998	1116.067	23.888098	-56.736526	1312.6156	-236.70714	187.01141	1362.2698	-115.62212	240.56982	1216.0099	-102.07866	257.27866	1033.877	-133.03207	237.31628	936.19037	-56.735973	220.07266	841.87006	-38.531868	270.3385	835.43402	-86.245361	274.16705	759.40717	-36.992157	-132.16959	1363.9143	-126.84969	-207.67737	1144.173	-113.40842	-209.21948	1040.4823	-170.03682	-215.66628	970.63361	-90.864517	-210.65598	818.70013	-67.621262	-237.63474	820.96173	-137.70937	-263.40475	757.56555	-77.985695	155.28391	931.56018	-40.820164	-121.03883	922.07153	-42.717751	72.677513	963.09265	-239.28615	-35.945873	955.77985	-242.12077
1297	12.96	95.017174	1574.3778	-49.269466	-61.838692	1564.0793	-44.916927	86.558517	1566.2012	-173.96393	-39.861073	1568.8613	-189.96399	28.025951	1380.5946	-205.13663	24.832582	1120.0358	-237.8782	20.393835	1302.5303	-27.035425	31.220068	1116.0166	23.8524	-56.710228	1312.6438	-236.7502	187.11557	1362.2426	-115.72871	240.54153	1215.9031	-102.28312	256.97708	1033.7892	-133.30241	236.85513	936.02747	-57.09029	219.44441	841.7193	-39.028522	269.8299	835.32343	-86.56839	273.38806	759.15558	-37.506424	-132.06642	1363.9146	-126.81573	-207.6895	1144.2465	-113.34538	-209.31192	1040.5708	-170.00587	-215.7726	970.71906	-90.787132	-210.78191	818.74078	-67.628082	-237.7473	821.03894	-137.76578	-263.49899	757.54053	-78.07798	155.31288	931.58966	-40.843735	-121.05391	922.08746	-42.661987	72.564049	963.08441	-239.3844	-36.038105	955.76025	-242.10074
1298	12.97	95.142578	1574.3419	-49.285625	-61.716434	1564.0962	-45.020344	86.78875	1566.1813	-174.00005	-39.649025	1568.8751	-190.12477	28.073757	1380.5862	-205.20052	24.729334	1120.0085	-237.87448	20.490065	1302.5325	-27.349186	31.305689	1116.0322	23.69511	-56.727001	1312.6578	-236.85721	187.19102	1362.2632	-115.93491	240.48152	1215.8488	-102.50791	256.66235	1033.708	-133.52708	236.43195	935.94745	-57.381344	218.85387	841.62714	-39.473911	269.19766	835.1911	-87.065788	272.67123	758.93555	-38.044857	-131.99977	1363.9449	-126.83706	-207.68007	1144.3053	-113.2216	-209.25642	1040.608	-169.95688	-215.84804	970.74292	-90.772003	-210.84355	818.71851	-67.682655	-237.71005	821.02655	-137.84593	-263.30246	757.29877	-78.821564	155.32538	931.57715	-40.911999	-121.03754	922.07568	-42.557152	72.436417	963.05597	-239.40047	-36.176151	955.72681	-242.07312
1299	12.98	95.261345	1574.3347	-49.295033	-61.617519	1564.0945	-45.17205	86.961441	1566.1652	-174.00949	-39.418663	1568.9135	-190.31606	28.076212	1380.5564	-205.25891	24.632702	1120.0011	-237.87114	20.601194	1302.4839	-27.308922	31.413622	1116.0521	23.558603	-56.754978	1312.6266	-236.82101	187.26614	1362.2823	-116.08317	240.4229	1215.7965	-102.69621	256.29172	1033.614	-133.82414	235.95862	935.78906	-57.812737	218.31635	841.48871	-39.982658	268.58948	835.02881	-87.627609	272.02875	758.71625	-38.655243	-131.92647	1363.9336	-126.84767	-207.60394	1144.3013	-113.14227	-209.24596	1040.6104	-169.79347	-215.76703	970.70758	-90.750221	-210.66901	818.56964	-67.785698	-237.48682	820.98016	-137.99336	-263.03293	756.97632	-78.602921	155.34888	931.58655	-41.012482	-121.07816	922.09857	-42.485302	72.307709	963.01984	-239.4639	-36.271931	955.74915	-242.09712
